<?xml version="1.0" encoding="utf-8"?>
<!-- Generator: Adobe Illustrator 24.0.1, SVG Export Plug-In . SVG Version: 6.00 Build 0)  -->
<svg version="1.1" xmlns="http://www.w3.org/2000/svg" xmlns:xlink="http://www.w3.org/1999/xlink" x="0px" y="0px"
	 viewBox="0 0 180.9 262.4" style="enable-background:new 0 0 180.9 262.4;" xml:space="preserve">
<style type="text/css">
	.st0{display:none;}
	.st1{display:inline;fill:#F7F8FC;}
	.st2{display:inline;}
	.st3{fill:#F7F8FC;}
	.st4{fill:#FFFFFF;stroke:#0561FC;stroke-width:10.0091;}
	.st5{fill:#9AC7F7;}
	.st6{fill:#C5E1F9;stroke:#0561FC;stroke-width:10.0091;}
	.st7{fill:none;stroke:#0561FC;stroke-width:10.0091;}
	.st8{fill:#9AC7F7;stroke:#0561FC;stroke-width:10.0091;}
	.st9{fill:#FFFFFF;stroke:#0561FC;stroke-width:10.0091;stroke-linejoin:round;}
	.st10{fill:#C5E1F9;}
	.st11{fill:#FFFFFF;}
	.st12{fill:none;stroke:#0561FC;stroke-width:10.0091;stroke-linejoin:bevel;}
</style>
<g id="Layer_2">
</g>
<g id="Layer_3">
</g>
<g id="Layer_4">
	<g>
		<ellipse class="st4" cx="156.5" cy="130.7" rx="15" ry="15"/>
		<path class="st8" d="M175.9,64.3c0-10.6-7.1-19.6-16.9-22.3c0-0.1,0-0.2,0-0.3c0-12.8-10.4-23.2-23.1-23.2c-2.7,0-5.4,0.5-7.8,1.4
			C123.2,8.8,112,1,99,1c-2.1,0-10.4,0-12.5,0C73.6,1,62.5,8.8,57.5,20c-2.4-0.9-5.1-1.4-7.8-1.4c-12.8,0-23.1,10.4-23.1,23.2
			c0,0.1,0,0.2,0,0.3C16.8,44.7,9.7,53.7,9.7,64.3c0,6.5,2.6,12.3,6.9,16.5c-3.9,3.8-6.3,9-6.3,14.8c0,11.4,9.2,20.7,20.6,20.7
			c11.4,0,20.6-9.3,20.6-20.7c0-4.9-1.7-9.5-4.6-13c5.5-4.2,86.2-4.2,91.7,0c-2.9,3.6-4.6,8.1-4.6,13c0,11.4,9.2,20.7,20.6,20.7
			c11.4,0,20.6-9.3,20.6-20.7c0-5.8-2.4-11.1-6.3-14.8C173.3,76.6,175.9,70.8,175.9,64.3z"/>
		<path class="st4" d="M175,258.4v-29.5c0-13-11.9-23.6-26.6-23.6h-37.8c0.1-0.6,0.1-1.2,0.1-1.8v-51.4c0-11.1-9-20-20-20h-1.2
			c-11,0-20,9-20,20v51.4c0,0.6,0,1.2,0.1,1.8H31.6C16.9,205.3,5,215.9,5,228.9v29.5"/>
		<path class="st4" d="M152.8,56.8v72.8c0,32.9-26.6,59.6-59.4,59.6l0,0c-32.8,0-59.4-26.7-59.4-59.6V56.8"/>
		<path class="st4" d="M93.4,169c5.3,0,10-3.2,12.8-8.2"/>
		<path class="st6" d="M108.6,142.2c-5.5,0-10-4.5-10-10v-31.7c0-5.5,4.5-10,10-10h31.7c5.5,0,10,4.5,10,10v31.7c0,5.5-4.5,10-10,10
			H108.6z"/>
		<path class="st6" d="M37,142.2c-5.5,0-10-4.5-10-10v-31.7c0-5.5,4.5-10,10-10h31.7c5.5,0,10,4.5,10,10v31.7c0,5.5-4.5,10-10,10H37
			z"/>
		<path class="st7" d="M78.6,117.1c0-5.5,4.5-10,10-10c5.5,0,10,4.5,10,10"/>
		<path class="st8" d="M73.9,56.9c0,10.8-8.7,19.5-19.4,19.5C43.7,76.4,35,67.6,35,56.9"/>
		<path class="st8" d="M113.8,56.9c0,10.8-8.7,19.5-19.4,19.5c-10.7,0-19.4-8.7-19.4-19.5"/>
		<path class="st8" d="M153.1,56.9c0,10.8-8.7,19.5-19.4,19.5c-10.7,0-19.4-8.7-19.4-19.5"/>
		<path class="st7" d="M138.3,205.6v16.7c0,11.1-9,20-20,20H61.7c-11,0-20-9-20-20v-16.7"/>
	</g>
</g>
</svg>
