<?xml version="1.0" encoding="utf-8"?>
<!-- Generator: Adobe Illustrator 24.0.1, SVG Export Plug-In . SVG Version: 6.00 Build 0)  -->
<svg version="1.1" xmlns="http://www.w3.org/2000/svg" xmlns:xlink="http://www.w3.org/1999/xlink" x="0px" y="0px"
	 viewBox="0 0 203.3 247.9" style="enable-background:new 0 0 203.3 247.9;" xml:space="preserve">
<style type="text/css">
	.st0{display:none;}
	.st1{display:inline;fill:#F7F8FC;}
	.st2{display:inline;}
	.st3{fill:#F7F8FC;}
	.st4{fill:#FFFFFF;stroke:#0561FC;stroke-width:10.0091;}
	.st5{fill:#9AC7F7;}
	.st6{fill:#C5E1F9;stroke:#0561FC;stroke-width:10.0091;}
	.st7{fill:none;stroke:#0561FC;stroke-width:10.0091;}
	.st8{fill:#9AC7F7;stroke:#0561FC;stroke-width:10.0091;}
	.st9{fill:#FFFFFF;stroke:#0561FC;stroke-width:10.0091;stroke-linejoin:round;}
	.st10{fill:#C5E1F9;}
	.st11{fill:#FFFFFF;}
	.st12{fill:none;stroke:#0561FC;stroke-width:10.0091;stroke-linejoin:bevel;}
</style>
<g id="Layer_2">
</g>
<g id="Layer_3">
</g>
<g id="Layer_4">
	<g>
		<path class="st4" d="M5,247.9v-33.5c0-14.8,13.5-26.8,30.3-26.8H168c16.7,0,30.2,12,30.2,26.8v33.5"/>
		<polygon class="st4" points="126.5,187.8 101,202.5 75.6,187.8 75.6,132.2 101,132.2 126.5,132.2 		"/>
		<polygon class="st10" points="71.3,228 100.9,208.3 73.6,192.5 		"/>
		<polygon class="st10" points="130.8,228 101.1,208.3 128.4,192.5 		"/>
		<path class="st4" d="M174.9,113.5c0,6.5-5.3,11.8-11.7,11.8h-1c-6.5,0-11.7-5.3-11.7-11.8V91.9c0-6.5,5.3-11.8,11.7-11.8h1
			c6.5,0,11.7,5.3,11.7,11.8V113.5z"/>
		<path class="st4" d="M161.1,115.5c0,32.9-26.6,59.6-59.4,59.6l0,0c-32.8,0-59.4-26.7-59.4-59.6V67.8c0-32.9,26.6-59.6,59.4-59.6
			l0,0c32.8,0,59.4,26.7,59.4,59.6V115.5z"/>
		<path class="st6" d="M80.4,5c-9.6,0-18.1,5-23,12.5H48c-11.8,0-21.3,9.6-21.3,21.4v102.7h15V70.1c0-8.3,6.7-15,15-15h8.7h73.7
			h13.7c15.2,0,27.5-12.3,27.5-27.6V5H80.4z"/>
		<path class="st4" d="M42.2,80.3c-5.9,0.6-15.5,5.6-15.5,11.6v21.6c0,6.1,9.6,11,15.5,11.6V80.3z"/>
		<path class="st4" d="M89.1,138.2c2.9,5,7.5,8.2,12.8,8.2c5.3,0,10-3.2,12.8-8.2"/>
		<path class="st7" d="M43.6,80.4V90c0,13.6,11,24.7,24.6,24.7c13.6,0,24.6-11,24.6-24.7v-9.6H43.6z"/>
		<path class="st7" d="M111.8,80.4V90c0,13.6,11,24.7,24.6,24.7c13.6,0,24.6-11,24.6-24.7v-9.6H111.8z"/>
		<line class="st7" x1="78.6" y1="93.8" x2="67.7" y2="93.8"/>
		<line class="st7" x1="138.5" y1="93.8" x2="127.7" y2="93.8"/>
		<line class="st7" x1="92.7" y1="80.4" x2="115.2" y2="80.4"/>
	</g>
</g>
</svg>
