<?xml version="1.0" encoding="utf-8"?>
<!-- Generator: Adobe Illustrator 24.0.1, SVG Export Plug-In . SVG Version: 6.00 Build 0)  -->
<svg version="1.1" xmlns="http://www.w3.org/2000/svg" xmlns:xlink="http://www.w3.org/1999/xlink" x="0px" y="0px"
	 viewBox="0 0 180 256.4" style="enable-background:new 0 0 180 256.4;" xml:space="preserve">
<style type="text/css">
	.st0{display:none;}
	.st1{display:inline;fill:#F7F8FC;}
	.st2{display:inline;}
	.st3{fill:#F7F8FC;}
	.st4{fill:#FFFFFF;stroke:#0561FC;stroke-width:10.0091;}
	.st5{fill:#9AC7F7;}
	.st6{fill:#C5E1F9;stroke:#0561FC;stroke-width:10.0091;}
	.st7{fill:none;stroke:#0561FC;stroke-width:10.0091;}
	.st8{fill:#9AC7F7;stroke:#0561FC;stroke-width:10.0091;}
	.st9{fill:#FFFFFF;stroke:#0561FC;stroke-width:10.0091;stroke-linejoin:round;}
	.st10{fill:#C5E1F9;}
	.st11{fill:#FFFFFF;}
	.st12{fill:none;stroke:#0561FC;stroke-width:10.0091;stroke-linejoin:bevel;}
</style>
<g id="Layer_2">
	<g class="st0">
		<rect x="-67.3" y="-39.6" class="st1" width="100" height="100"/>
		<rect x="86.1" y="-39.6" class="st1" width="100" height="100"/>
		<g class="st2">
			<rect x="-67.3" y="113.8" class="st3" width="100" height="100"/>
			<rect x="86.1" y="113.8" class="st3" width="100" height="100"/>
		</g>
	</g>
</g>
<g id="Layer_3">
</g>
<g id="Layer_4">
	<g>
		<path class="st4" d="M5,256.4v-29.5c0-13,11.9-23.6,26.6-23.6h116.8c14.7,0,26.6,10.6,26.6,23.6v29.5"/>
		<polygon class="st4" points="115.4,202.7 90,217.4 64.6,202.7 64.6,147 90,147 115.4,147 		"/>
		<path class="st8" d="M118.8,34.2c0,16.1-13.1,29.2-29.2,29.2c-16.1,0-29.2-13.1-29.2-29.2C60.5,18.1,73.5,5,89.6,5
			C105.7,5,118.8,18.1,118.8,34.2z"/>
		<path class="st4" d="M162.9,130.6c0,6.5-5.3,11.8-11.7,11.8h-1c-6.5,0-11.7-5.3-11.7-11.8V109c0-6.5,5.3-11.8,11.7-11.8h1
			c6.5,0,11.7,5.3,11.7,11.8V130.6z"/>
		<path class="st4" d="M149.2,130.1c0,32.9-26.6,59.6-59.4,59.6l0,0c-32.8,0-59.4-26.7-59.4-59.6V82.4c0-32.9,26.6-59.6,59.4-59.6
			l0,0c32.8,0,59.4,26.7,59.4,59.6V130.1z"/>
		<path class="st4" d="M30.3,97.4C24.4,98,14.8,103,14.8,109v21.6c0,6.1,9.6,11,15.5,11.6V97.4z"/>
		<line class="st7" x1="90" y1="229.6" x2="90" y2="239.4"/>
		<line class="st7" x1="90" y1="246.6" x2="90" y2="256.4"/>
		<path class="st8" d="M89.7,22.9c-32.8,0-59.4,26.7-59.4,59.6v11.1h77.3l10.4-18l10.4,18h20.8V82.4
			C149.2,49.5,122.5,22.9,89.7,22.9z"/>
		<path class="st4" d="M81.2,137.5c2,3.5,5.3,5.8,9.1,5.8c3.7,0,7-2.3,9.1-5.8"/>
		<line class="st7" x1="65.2" y1="116.1" x2="54.3" y2="116.1"/>
		<line class="st7" x1="125.1" y1="116.1" x2="114.3" y2="116.1"/>
		<path class="st4" d="M75.9,159.1v1.1c0,5.9,4.8,10.7,10.6,10.7H94c5.9,0,10.6-4.8,10.6-10.7v-1.1H75.9z"/>
	</g>
</g>
</svg>
