<?xml version="1.0" encoding="utf-8"?>
<!-- Generator: Adobe Illustrator 24.0.1, SVG Export Plug-In . SVG Version: 6.00 Build 0)  -->
<svg version="1.1" xmlns="http://www.w3.org/2000/svg" xmlns:xlink="http://www.w3.org/1999/xlink" x="0px" y="0px"
	 viewBox="0 0 203.3 251.7" style="enable-background:new 0 0 203.3 251.7;" xml:space="preserve">
<style type="text/css">
	.st0{display:none;}
	.st1{display:inline;fill:#F7F8FC;}
	.st2{display:inline;}
	.st3{fill:#F7F8FC;}
	.st4{fill:#FFFFFF;stroke:#0561FC;stroke-width:10.0091;}
	.st5{fill:#9AC7F7;}
	.st6{fill:#C5E1F9;stroke:#0561FC;stroke-width:10.0091;}
	.st7{fill:none;stroke:#0561FC;stroke-width:10.0091;}
	.st8{fill:#9AC7F7;stroke:#0561FC;stroke-width:10.0091;}
	.st9{fill:#FFFFFF;stroke:#0561FC;stroke-width:10.0091;stroke-linejoin:round;}
	.st10{fill:#C5E1F9;}
	.st11{fill:#FFFFFF;}
	.st12{fill:none;stroke:#0561FC;stroke-width:10.0091;stroke-linejoin:bevel;}
</style>
<g id="Layer_2">
</g>
<g id="Layer_3">
</g>
<g id="Layer_4">
	<g>
		<path class="st4" d="M184.8,99.4c0,10.3-8.3,18.7-18.6,18.7H36.8c-10.3,0-18.6-8.4-18.6-18.7l0,0c0-10.3,8.3-18.7,18.6-18.7h129.4
			C176.4,80.7,184.8,89.1,184.8,99.4L184.8,99.4z"/>
		<path class="st4" d="M5,251.7v-33.5c0-14.8,13.5-26.8,30.3-26.8H168c16.7,0,30.2,12,30.2,26.8v33.5"/>
		<path class="st4" d="M169.1,139.1c0,28.8-23.3,52.2-52,52.2H89c-28.7,0-52-23.4-52-52.2V57.2C37,28.4,60.3,5,89,5h28.1
			c28.7,0,52,23.4,52,52.2V139.1z"/>
		<path class="st6" d="M169.1,148.3V60c0-15.4-6.7-29.2-17.2-38.7c0.3,2.6,0.5,5.2,0.5,7.9v81.9c0,0-3.9,26.1-10.3,35.4
			c-6.1-11.7-21.2-20-39-20c-17.8,0-32.9,8.3-39,20c-6.4-9.3-10.3-35.4-10.3-35.4V56C65,45,72.1,28.4,72.1,9.8
			c0-0.6-0.1-1.3-0.1-1.9C51.7,14.9,37,34.3,37,57.2V60v6.8V151v20.7v16.1c0,9.9,8,18,17.9,18h1.7c4.7,0,8.9-1.8,12.1-4.7
			c1,9,8.6,15.9,17.8,15.9h1.7c6.2,0,11.7-3.2,14.9-8c3.2,4.8,8.7,8,14.9,8h1.7c9.2,0,16.8-7,17.8-15.9c3.2,2.9,7.4,4.7,12.1,4.7
			h1.7c9.9,0,17.9-8,17.9-18V151C169.4,150,169.3,149.2,169.1,148.3z"/>
		<path class="st7" d="M72.1,11.7c0,21.6,30.6,39.2,68.4,39.2c16.2,0,31-3.2,42.7-8.6"/>
		<path class="st6" d="M168.2,47.5C163.7,23.3,142.5,5,117.1,5H89c-5.8,0-11.3,1-16.5,2.7c-0.2,1.3-0.3,2.6-0.3,3.9
			c0,21.6,30.6,39.2,68.4,39.2C150.4,50.9,159.8,49.7,168.2,47.5z"/>
		<path class="st4" d="M114.3,118.6c0,6.1-4.9,11-11,11l0,0c-6.1,0-11-4.9-11-11"/>
		<path class="st7" d="M69.8,74.4c6.8-6.8,17.7-6.8,24.5,0"/>
		<g>
			<line class="st7" x1="88.1" y1="90.1" x2="76" y2="90.1"/>
		</g>
		<path class="st7" d="M110.3,74.4c6.8-6.8,17.7-6.8,24.5,0"/>
		<g>
			<line class="st7" x1="128.6" y1="90.1" x2="116.5" y2="90.1"/>
		</g>
		<path class="st4" d="M90.5,155.3v4.9c0,5.2,4.2,9.3,9.3,9.3h6.5c5.1,0,9.3-4.2,9.3-9.3v-4.9H90.5z"/>
	</g>
</g>
</svg>
