<?xml version="1.0" encoding="utf-8"?>
<!-- Generator: Adobe Illustrator 24.0.1, SVG Export Plug-In . SVG Version: 6.00 Build 0)  -->
<svg version="1.1" xmlns="http://www.w3.org/2000/svg" xmlns:xlink="http://www.w3.org/1999/xlink" x="0px" y="0px"
	 viewBox="0 0 248.1 250.7" style="enable-background:new 0 0 248.1 250.7;" xml:space="preserve">
<style type="text/css">
	.st0{display:none;}
	.st1{display:inline;fill:#F7F8FC;}
	.st2{display:inline;}
	.st3{fill:#F7F8FC;}
	.st4{fill:#FFFFFF;stroke:#0561FC;stroke-width:10.0091;}
	.st5{fill:#9AC7F7;}
	.st6{fill:#C5E1F9;stroke:#0561FC;stroke-width:10.0091;}
	.st7{fill:none;stroke:#0561FC;stroke-width:10.0091;}
	.st8{fill:#9AC7F7;stroke:#0561FC;stroke-width:10.0091;}
	.st9{fill:#FFFFFF;stroke:#0561FC;stroke-width:10.0091;stroke-linejoin:round;}
	.st10{fill:#C5E1F9;}
	.st11{fill:#FFFFFF;}
	.st12{fill:none;stroke:#0561FC;stroke-width:10.0091;stroke-linejoin:bevel;}
</style>
<g id="Layer_2">
</g>
<g id="Layer_3">
</g>
<g id="Layer_4">
	<g>
		<path class="st4" d="M190.2,85.6c0,8.5-8,15.3-17.9,15.3c-9.9,0-17.9-6.8-17.9-15.3c0-8.5,8-15.3,17.9-15.3
			C182.2,70.3,190.2,77.2,190.2,85.6z"/>
		<path class="st8" d="M126,51.2C85.9,54.9,50,69.8,23.3,91.9c-0.2,3-0.3,6-0.3,9c0,73.5,49.5,133,110.6,133
			c53.5,0,98.1-45.7,108.4-106.4c-5.1,0.9-10.2,1.3-15.5,1.3C181.9,128.9,143.5,97,126,51.2z"/>
		<path class="st7" d="M235.8,156.8c-5.1,0.9-10.2,1.3-15.5,1.3c-12.1,0-23.8-2.3-34.7-6.7"/>
		<path class="st6" d="M27,250.7v-47c0-10.9,8.8-19.8,19.8-19.8h102.5c10.9,0,19.8,8.9,19.8,19.8v47"/>
		<path class="st9" d="M73.6,185V63.9c0-12.5,10.1-22.6,22.6-22.6l0,0c12.5,0,22.6,10.1,22.6,22.6v160.8
			C118.8,223.7,73.4,185.2,73.6,185z"/>
		<path class="st4" d="M98.9,5.3c-32.8,0-60.7,20.8-71.3,50c-8.1-3.4-17.1-1.1-20.9,5.7C2.6,68.3,6.3,78.2,14.9,83
			c2.7,1.5,5.5,2.3,8.2,2.5c2.2,40,35.3,71.8,75.8,71.8c41.9,0,75.9-34.1,75.9-76.1C174.8,39.3,140.8,5.3,98.9,5.3z"/>
		<path class="st8" d="M28,54.1c8.7,7.3,18.5,7.8,24.6,7.8c32.3,0,53.1-25.9,64-54.5C110.9,6,105,5.3,98.9,5.3
			C66.5,5.3,38.9,25.6,28,54.1z"/>
		<path class="st8" d="M173.3,66.6c-6.4-32.9-34-58.1-67.9-61C111.8,38.4,139.4,63.7,173.3,66.6z"/>
		<path class="st7" d="M74.8,85.2c-6.1,6.1-15.9,6.1-21.9,0"/>
		<path class="st7" d="M137.6,85.2c-6.1,6.1-15.9,6.1-21.9,0"/>
		<line class="st7" x1="97.3" y1="72.1" x2="97.3" y2="104.9"/>
	</g>
</g>
</svg>
