<?xml version="1.0" encoding="utf-8"?>
<!-- Generator: Adobe Illustrator 24.0.1, SVG Export Plug-In . SVG Version: 6.00 Build 0)  -->
<svg version="1.1" xmlns="http://www.w3.org/2000/svg" xmlns:xlink="http://www.w3.org/1999/xlink" x="0px" y="0px"
	 viewBox="0 0 203.3 243.2" style="enable-background:new 0 0 203.3 243.2;" xml:space="preserve">
<style type="text/css">
	.st0{display:none;}
	.st1{display:inline;fill:#F7F8FC;}
	.st2{display:inline;}
	.st3{fill:#F7F8FC;}
	.st4{fill:#FFFFFF;stroke:#0561FC;stroke-width:10.0091;}
	.st5{fill:#9AC7F7;}
	.st6{fill:#C5E1F9;stroke:#0561FC;stroke-width:10.0091;}
	.st7{fill:none;stroke:#0561FC;stroke-width:10.0091;}
	.st8{fill:#9AC7F7;stroke:#0561FC;stroke-width:10.0091;}
	.st9{fill:#FFFFFF;stroke:#0561FC;stroke-width:10.0091;stroke-linejoin:round;}
	.st10{fill:#C5E1F9;}
	.st11{fill:#FFFFFF;}
	.st12{fill:none;stroke:#0561FC;stroke-width:10.0091;stroke-linejoin:bevel;}
</style>
<g id="Layer_2">
	<g class="st0">
		<g class="st2">
			<rect x="18.8" y="24.4" class="st3" width="100" height="100"/>
			<rect x="172.2" y="24.4" class="st3" width="100" height="100"/>
		</g>
	</g>
</g>
<g id="Layer_3">
</g>
<g id="Layer_4">
	<g>
		<path class="st4" d="M5,243.2v-33.5c0-14.8,13.5-26.8,30.3-26.8H168c16.7,0,30.2,12,30.2,26.8v33.5"/>
		<path class="st7" d="M101.6,232.4c11.5-12.5,20.9-29.6,27.3-49.5H74.3C80.8,202.8,90.2,219.9,101.6,232.4z"/>
		<path class="st4" d="M40.7,75.3h-4.2c-5.5,0-10,4.5-10,10v23.4c0,5.5,4.5,10,10,10h4.2V75.3z"/>
		<path class="st4" d="M160.2,118.7h4.2c5.5,0,10-4.5,10-10V85.3c0-5.5-4.5-10-10-10h-4.2V118.7z"/>
		<path class="st4" d="M159.9,145.1c0,25.8-20.9,46.7-46.6,46.7H88.2c-25.7,0-46.6-20.9-46.6-46.7V51.7C41.6,25.9,62.5,5,88.2,5
			h25.1c25.7,0,46.6,20.9,46.6,46.7V145.1z"/>
		<path class="st6" d="M144.5,19.6c0.3,2.3,0.4,4.7,0.4,7.1V120c0,12.2-3.5,23.3-9.3,31.6c-5.5-10.5-19-17.9-34.9-17.9
			c-15.9,0-29.4,7.4-34.9,17.9c-5.7-8.3-9.3-19.4-9.3-31.6V26.6c0-2.4,0.2-4.8,0.4-7.1c-9.5,8.5-15.4,20.9-15.4,34.7v93.4
			c0,25.8,20.9,46.7,46.6,46.7h25.1c25.7,0,46.6-20.9,46.6-46.7V54.2C159.9,40.4,154,28.1,144.5,19.6z"/>
		<path class="st4" d="M86.4,153.3v1.1c0,5.9,4.8,10.7,10.6,10.7h7.5c5.9,0,10.6-4.8,10.6-10.7v-1.1H86.4z"/>
		<path class="st4" d="M110.9,109.2c0,5.4-4.4,9.9-9.8,9.9l0,0c-5.4,0-9.8-4.4-9.8-9.9v-37"/>
		<path class="st7" d="M132,81.3c-6.1,6.1-15.9,6.1-21.9,0"/>
		<path class="st7" d="M89.5,81.3c-6.1,6.1-15.9,6.1-21.9,0"/>
	</g>
</g>
</svg>
