<?xml version="1.0" encoding="utf-8"?>
<!-- Generator: Adobe Illustrator 24.0.1, SVG Export Plug-In . SVG Version: 6.00 Build 0)  -->
<svg version="1.1" xmlns="http://www.w3.org/2000/svg" xmlns:xlink="http://www.w3.org/1999/xlink" x="0px" y="0px"
	 viewBox="0 0 205.7 246.4" style="enable-background:new 0 0 205.7 246.4;" xml:space="preserve">
<style type="text/css">
	.st0{display:none;}
	.st1{display:inline;fill:#F7F8FC;}
	.st2{display:inline;}
	.st3{fill:#F7F8FC;}
	.st4{fill:#FFFFFF;stroke:#0561FC;stroke-width:10.0091;}
	.st5{fill:#9AC7F7;}
	.st6{fill:#C5E1F9;stroke:#0561FC;stroke-width:10.0091;}
	.st7{fill:none;stroke:#0561FC;stroke-width:10.0091;}
	.st8{fill:#9AC7F7;stroke:#0561FC;stroke-width:10.0091;}
	.st9{fill:#FFFFFF;stroke:#0561FC;stroke-width:10.0091;stroke-linejoin:round;}
	.st10{fill:#C5E1F9;}
	.st11{fill:#FFFFFF;}
	.st12{fill:none;stroke:#0561FC;stroke-width:10.0091;stroke-linejoin:bevel;}
</style>
<g id="Layer_2">
</g>
<g id="Layer_3">
</g>
<g id="Layer_4">
	<g>
		<path class="st8" d="M52.6,246.4v-49.1c0-11.4,9.2-20.7,20.6-20.7h106.9c11.4,0,20.6,9.3,20.6,20.7v49.1"/>
		<path class="st6" d="M190.1,111.1c0-34.1-31.2-61.8-69.8-61.8c-28.9,0-53.6,15.5-64.2,37.7c-0.2,0-0.4,0-0.6-0.1
			c-3.6-10.1-13.2-17.2-24.5-17.2C16.7,69.6,5,81.3,5,95.8c0,7.2,2.9,13.7,7.6,18.4c-1.5,4.3-2.3,8.8-2.3,13.6
			c0,22.7,18.4,41.2,41.1,41.2c2,0,4-0.2,5.9-0.5c0,0,0,0.1,0,0.1c0,8.9,7,16,15.6,16c5.5,0,10.2-2.9,13-7.2
			c4.2,5.2,10.5,8.5,17.6,8.5c9,0,16.8-5.4,20.5-13.1c7.9-0.3,15.4-1.9,22.4-4.4c4.1,5.8,10.8,9.7,18.4,9.7
			c12.6,0,22.8-10.5,22.8-23.4c0-5.7-2-11-5.3-15C187.3,131.1,190.1,121.4,190.1,111.1z"/>
		<path class="st4" d="M122.6,208.2c-13.2,0-23.9-10.7-23.9-24V55.9c0-13.2,10.7-24,23.9-24l0,0c13.2,0,23.9,10.7,23.9,24v128.3
			C146.5,197.4,135.8,208.2,122.6,208.2L122.6,208.2z"/>
		<path class="st4" d="M53.1,78c-5.7,1.5-14.5,7.8-13.6,13.8l3.2,21.3c0.9,6,11.2,9.5,17.1,9.2L53.1,78z"/>
		<path class="st4" d="M178.3,93.4c0,34.3-27.8,62.2-62,62.2l0,0c-34.2,0-62-27.8-62-62.2V67.2C54.2,32.8,82,5,116.2,5l0,0
			c34.2,0,62,27.8,62,62.2V93.4z"/>
		<path class="st10" d="M59.3,66.6V86c3.2,0.6,6.4,0.9,9.8,0.9c31.2,0,56.5-25.4,56.5-56.6V10.9c-3.2-0.6-6.4-0.9-9.8-0.9
			C84.6,10,59.3,35.4,59.3,66.6z"/>
		<path class="st6" d="M127.7,6.7v11.4c0,30.3,21.8,55.4,50.5,60.6V67.3C178.3,37,156.4,11.9,127.7,6.7z"/>
		<path class="st6" d="M68.8,50.3C68.4,35,56.5,22.9,42.1,23.1c-14.6,0.2-26.2,12.9-26,28.3c0.2,12.2,14,36.2,51.8,35.7
			c31.2-0.4,56.8-23.8,61.3-54.1"/>
		<line class="st7" x1="99.3" y1="100.3" x2="87.1" y2="100.3"/>
		<line class="st7" x1="148.2" y1="100.3" x2="136" y2="100.3"/>
		<path class="st7" d="M128.6,123.5c-6.3,6.3-16.6,6.3-22.9,0"/>
	</g>
</g>
</svg>
