<?xml version="1.0" encoding="utf-8"?>
<!-- Generator: Adobe Illustrator 24.0.1, SVG Export Plug-In . SVG Version: 6.00 Build 0)  -->
<svg version="1.1" xmlns="http://www.w3.org/2000/svg" xmlns:xlink="http://www.w3.org/1999/xlink" x="0px" y="0px"
	 viewBox="0 0 203.3 253.1" style="enable-background:new 0 0 203.3 253.1;" xml:space="preserve">
<style type="text/css">
	.st0{display:none;}
	.st1{display:inline;fill:#F7F8FC;}
	.st2{display:inline;}
	.st3{fill:#F7F8FC;}
	.st4{fill:#FFFFFF;stroke:#0561FC;stroke-width:10.0091;}
	.st5{fill:#9AC7F7;}
	.st6{fill:#C5E1F9;stroke:#0561FC;stroke-width:10.0091;}
	.st7{fill:none;stroke:#0561FC;stroke-width:10.0091;}
	.st8{fill:#9AC7F7;stroke:#0561FC;stroke-width:10.0091;}
	.st9{fill:#FFFFFF;stroke:#0561FC;stroke-width:10.0091;stroke-linejoin:round;}
	.st10{fill:#C5E1F9;}
	.st11{fill:#FFFFFF;}
	.st12{fill:none;stroke:#0561FC;stroke-width:10.0091;stroke-linejoin:bevel;}
</style>
<g id="Layer_2">
</g>
<g id="Layer_3">
</g>
<g id="Layer_4">
	<g>
		<path class="st8" d="M5,250.7v-33.5c0-14.8,13.5-26.8,30.3-26.8H168c16.7,0,30.2,12,30.2,26.8v33.5"/>
		<path class="st4" d="M101.6,223.6c-13.2,0-23.9-10.7-23.9-24V71.4c0-13.2,10.7-24,23.9-24l0,0c13.2,0,23.9,10.7,23.9,24v128.3
			C125.5,212.9,114.8,223.6,101.6,223.6L101.6,223.6z"/>
		<path class="st4" d="M38.1,77.8h-4.2c-5.5,0-10,4.5-10,10v23.4c0,5.5,4.5,10,10,10h4.2V77.8z"/>
		<path class="st4" d="M157.6,121.2h4.2c5.5,0,10-4.5,10-10V87.8c0-5.5-4.5-10-10-10h-4.2V121.2z"/>
		<path class="st4" d="M157.3,145.1c0,25.8-20.9,46.7-46.6,46.7H85.6c-25.7,0-46.6-20.9-46.6-46.7V51.7C39,25.9,59.9,5,85.6,5h25.1
			c25.7,0,46.6,20.9,46.6,46.7V145.1z"/>
		<path class="st4" d="M131.5,186.8c15.3-7.7,25.8-23.5,25.8-41.8v-19.9c-7.6,3.8-14.1,9.7-18.6,16.9c-4.5,7.2-7.2,15.7-7.2,24.9
			V186.8z"/>
		<path class="st4" d="M64.8,186.8C49.5,179.2,39,163.4,39,145.1v-19.9c15.3,7.7,25.8,23.5,25.8,41.8"/>
		<path class="st4" d="M83.8,153.3v1.1c0,5.9,4.8,10.7,10.6,10.7h7.5c5.9,0,10.6-4.8,10.6-10.7v-1.1"/>
		<path class="st4" d="M110.7,126.7c0,5.4-4.4,9.9-9.8,9.9l0,0c-5.4,0-9.8-4.4-9.8-9.9v-37"/>
		<path class="st6" d="M110.6,5H85.5C59.8,5,38.9,25.9,38.9,51.7v4.5c6.4-9.3,17.4-16.4,30.6-19.4C73.3,43.8,84.7,49,98.1,49
			c13.4,0,24.7-5.1,28.6-12.2c13.2,3.1,24.1,10.1,30.6,19.4v-4.5C157.2,25.9,136.4,5,110.6,5z"/>
		<line class="st7" x1="109.2" y1="82.8" x2="138" y2="86.5"/>
		<line class="st7" x1="84.2" y1="82.8" x2="55.5" y2="86.6"/>
		<rect x="92.3" y="224.3" class="st8" width="18.7" height="23.8"/>
	</g>
</g>
</svg>
