<?xml version="1.0" encoding="utf-8"?>
<!-- Generator: Adobe Illustrator 24.0.1, SVG Export Plug-In . SVG Version: 6.00 Build 0)  -->
<svg version="1.1" xmlns="http://www.w3.org/2000/svg" xmlns:xlink="http://www.w3.org/1999/xlink" x="0px" y="0px"
	 viewBox="0 0 164.2 260.7" style="enable-background:new 0 0 164.2 260.7;" xml:space="preserve">
<style type="text/css">
	.st0{display:none;}
	.st1{display:inline;fill:#F7F8FC;}
	.st2{display:inline;}
	.st3{fill:#F7F8FC;}
	.st4{fill:#FFFFFF;stroke:#0561FC;stroke-width:10.0091;}
	.st5{fill:#9AC7F7;}
	.st6{fill:#C5E1F9;stroke:#0561FC;stroke-width:10.0091;}
	.st7{fill:none;stroke:#0561FC;stroke-width:10.0091;}
	.st8{fill:#9AC7F7;stroke:#0561FC;stroke-width:10.0091;}
	.st9{fill:#FFFFFF;stroke:#0561FC;stroke-width:10.0091;stroke-linejoin:round;}
	.st10{fill:#C5E1F9;}
	.st11{fill:#FFFFFF;}
	.st12{fill:none;stroke:#0561FC;stroke-width:10.0091;stroke-linejoin:bevel;}
</style>
<g id="Layer_2">
</g>
<g id="Layer_3">
</g>
<g id="Layer_4">
	<g>
		<path class="st4" d="M9.2,260.7v-20c0-11.1,9-20,20-20h110c11,0,20,9,20,20v20"/>
		<path class="st4" d="M84.6,249.9c-13.2,0-23.9-10.7-23.9-24V97.7c0-13.2,10.7-24,23.9-24l0,0c13.2,0,23.9,10.7,23.9,24V226
			C108.5,239.2,97.8,249.9,84.6,249.9L84.6,249.9z"/>
		<path class="st8" d="M158.9,209.7V82.1C158.9,39.6,124.4,5,81.9,5C39.5,5,5,39.6,5,82.1v127.6h2.6c34.3,0,62.3-27.8,62.5-62.2
			h25.6c0.3,34.3,28.2,62.2,62.5,62.2H158.9z"/>
		<path class="st4" d="M155.1,130.3c0,6.5-5.3,11.8-11.7,11.8h-1c-6.5,0-11.7-5.3-11.7-11.8v-21.6c0-6.5,5.3-11.8,11.7-11.8h1
			c6.5,0,11.7,5.3,11.7,11.8V130.3z"/>
		<path class="st4" d="M141.4,85.3v44.4c0,32.9-26.6,59.6-59.4,59.6l0,0c-32.8,0-59.4-26.7-59.4-59.6V85.3"/>
		<path class="st4" d="M22.5,97.1C16.6,97.7,7,102.7,7,108.7v21.6c0,6.1,9.6,11,15.5,11.6V97.1z"/>
		<line class="st7" x1="57.4" y1="123.3" x2="46.5" y2="123.3"/>
		<line class="st7" x1="117.4" y1="123.3" x2="106.5" y2="123.3"/>
		<path class="st4" d="M78.8,165.5h7.5c5.9,0,10.6-4.8,10.6-10.7v-1.1"/>
		<path class="st8" d="M41.3,38.7C29.7,49.5,22.5,65,22.5,82.1v8.2h44.4c6.4,0,11.9-3.4,15-8.5c3.1,5.1,8.6,8.5,15,8.5h44.4"/>
	</g>
</g>
</svg>
