<?xml version="1.0" encoding="utf-8"?>
<!-- Generator: Adobe Illustrator 24.0.1, SVG Export Plug-In . SVG Version: 6.00 Build 0)  -->
<svg version="1.1" xmlns="http://www.w3.org/2000/svg" xmlns:xlink="http://www.w3.org/1999/xlink" x="0px" y="0px"
	 viewBox="0 0 203.3 244.8" style="enable-background:new 0 0 203.3 244.8;" xml:space="preserve">
<style type="text/css">
	.st0{display:none;}
	.st1{display:inline;fill:#F7F8FC;}
	.st2{display:inline;}
	.st3{fill:#F7F8FC;}
	.st4{fill:#FFFFFF;stroke:#0561FC;stroke-width:10.0091;}
	.st5{fill:#9AC7F7;}
	.st6{fill:#C5E1F9;stroke:#0561FC;stroke-width:10.0091;}
	.st7{fill:none;stroke:#0561FC;stroke-width:10.0091;}
	.st8{fill:#9AC7F7;stroke:#0561FC;stroke-width:10.0091;}
	.st9{fill:#FFFFFF;stroke:#0561FC;stroke-width:10.0091;stroke-linejoin:round;}
	.st10{fill:#C5E1F9;}
	.st11{fill:#FFFFFF;}
	.st12{fill:none;stroke:#0561FC;stroke-width:10.0091;stroke-linejoin:bevel;}
</style>
<g id="Layer_2">
	<g class="st0">
		<g class="st2">
			<rect x="-55.7" y="25.1" class="st3" width="100" height="100"/>
			<rect x="97.7" y="25.1" class="st3" width="100" height="100"/>
		</g>
	</g>
</g>
<g id="Layer_3">
</g>
<g id="Layer_4">
	<g>
		<path class="st4" d="M5,241.8v-33.5c0-14.8,13.5-26.8,30.3-26.8H168c16.7,0,30.2,12,30.2,26.8v33.5"/>
		<polygon class="st4" points="127.1,181.7 101.6,196.4 76.2,181.7 76.2,126.1 101.6,126.1 127.1,126.1 		"/>
		<path class="st4" d="M161.5,109.4c0,32.9-26.6,59.6-59.4,59.6l0,0c-32.8,0-59.4-26.7-59.4-59.6V57.6c0-32.9,26.6-30.4,59.4-30.4
			l0,0c32.8,0,59.4-2.5,59.4,30.4V109.4z"/>
		<g>
			<line class="st7" x1="82.4" y1="92.7" x2="71.6" y2="92.7"/>
			<line class="st7" x1="132.4" y1="92.7" x2="121.6" y2="92.7"/>
		</g>
		<path class="st6" d="M129.5,134.9c-0.6-9.1-8.2-16.3-17.4-16.3H92c-9.2,0-16.8,7.2-17.4,16.3H129.5z"/>
		<path class="st6" d="M154.6,18.9V15c0-5.5-4.4-10-9.8-10H59.3c-5.4,0-9.8,4.5-9.8,10v3.9c-11.2,0.4-20.2,9.8-20.2,21.3l5,70.1
			l9.7,10c0,0,4.4-56.4,10.5-74.9l47.5,8.8l47.5-8.8c6.1,18.5,10.5,74.9,10.5,74.9l9.7-10l5-70.1C174.7,28.7,165.7,19.3,154.6,18.9z
			"/>
		<g>
			<path class="st4" d="M46.6,85.4c-5.9-0.1-15.9,3.3-16.5,8.6l-2,18.9c-0.6,5.3,8.6,10.7,14.4,11.8L46.6,85.4z"/>
			<path class="st4" d="M156.7,86.7c5.9,0.1,16,3.7,16.7,9l2.5,19c0.7,5.3-8.3,10.5-14.1,11.5L156.7,86.7z"/>
		</g>
		<polygon class="st8" points="94.7,221.6 87.6,209.4 94.7,197.2 108.7,197.2 115.8,209.4 108.7,221.6 		"/>
		<polyline class="st8" points="90.1,243.8 94.7,221.6 108.7,221.6 113.3,243.8 		"/>
		<g>
			<polygon class="st4" points="73.5,215.8 101.6,197.2 75.7,182.2 			"/>
			<polygon class="st4" points="129.9,215.8 101.8,197.2 127.7,182.2 			"/>
		</g>
	</g>
</g>
</svg>
