<?xml version="1.0" encoding="utf-8"?>
<!-- Generator: Adobe Illustrator 24.0.1, SVG Export Plug-In . SVG Version: 6.00 Build 0)  -->
<svg version="1.1" xmlns="http://www.w3.org/2000/svg" xmlns:xlink="http://www.w3.org/1999/xlink" x="0px" y="0px"
	 viewBox="0 0 203.3 260.9" style="enable-background:new 0 0 203.3 260.9;" xml:space="preserve">
<style type="text/css">
	.st0{display:none;}
	.st1{display:inline;fill:#F7F8FC;}
	.st2{display:inline;}
	.st3{fill:#F7F8FC;}
	.st4{fill:#FFFFFF;stroke:#0561FC;stroke-width:10.0091;}
	.st5{fill:#9AC7F7;}
	.st6{fill:#C5E1F9;stroke:#0561FC;stroke-width:10.0091;}
	.st7{fill:none;stroke:#0561FC;stroke-width:10.0091;}
	.st8{fill:#9AC7F7;stroke:#0561FC;stroke-width:10.0091;}
	.st9{fill:#FFFFFF;stroke:#0561FC;stroke-width:10.0091;stroke-linejoin:round;}
	.st10{fill:#C5E1F9;}
	.st11{fill:#FFFFFF;}
	.st12{fill:none;stroke:#0561FC;stroke-width:10.0091;stroke-linejoin:bevel;}
</style>
<g id="Layer_2">
</g>
<g id="Layer_3">
</g>
<g id="Layer_4">
	<g>
		<path class="st8" d="M151.9,42.9L151.9,42.9c-0.2-4.3-2.4-8.7-6.2-12.8v38.2c7.1,1.2,12.5,7.4,12.5,14.8v36.3h15V64.3
			C173.3,52.5,163.7,42.9,151.9,42.9z"/>
		<path class="st4" d="M5,260.9v-33.5c0-14.8,13.5-26.8,30.3-26.8H168c16.7,0,30.2,12,30.2,26.8v33.5"/>
		<polygon class="st4" points="127.1,205.2 101.6,224.7 76.2,205.2 76.2,131.8 101.6,131.8 127.1,131.8 		"/>
		<path class="st4" d="M177.9,131.4c0,6.5-5.3,11.8-11.7,11.8h-1c-6.5,0-11.7-5.3-11.7-11.8v-11.5c0-6.5,5.3-11.8,11.7-11.8h1
			c6.5,0,11.7,5.3,11.7,11.8V131.4z"/>
		<path class="st4" d="M159.1,128.4c0,32.9-26.6,59.6-59.4,59.6l0,0c-32.8,0-59.4-26.7-59.4-59.6V80.8c0-32.9,26.6-59.6,59.4-59.6
			l0,0c32.8,0,59.4,26.7,59.4,59.6V128.4z"/>
		<path class="st8" d="M180.6,27.1c-2.2-16.5-34.1-25.7-71.2-20.7C74,11.1,46.6,27.2,46.1,42.9h0c-11.8,0-21.3,9.6-21.3,21.4v55.1
			h15V83.1c0-8.3,6.7-15,15-15h1.2c8.5,6.8,26.8,10.9,47.8,9.8c16.5-0.8,31-4.6,40.3-9.8h7.1c15.2,0,27.5-12.3,27.5-27.6l-2.2-0.2
			C179.6,36,181.2,31.5,180.6,27.1z"/>
		<path class="st4" d="M87.1,151.1c2.9,5,7.5,8.2,12.8,8.2c5.3,0,10-3.2,12.8-8.2"/>
		<line class="st7" x1="76.6" y1="106.7" x2="65.8" y2="106.7"/>
		<line class="st7" x1="136.6" y1="106.7" x2="125.7" y2="106.7"/>
		<g>
			<polygon class="st6" points="82.4,235 49,201.6 66.7,183.9 100.1,217.3 			"/>
			<polygon class="st6" points="120.9,235 154.3,201.6 136.6,183.9 103.2,217.3 			"/>
		</g>
		<line class="st7" x1="102.4" y1="244.5" x2="110.8" y2="244.5"/>
		<path class="st4" d="M39.9,109.5c-1.6-0.9-3.5-1.4-5.4-1.4h-1c-6.5,0-11.7,5.3-11.7,11.8v11.5c0,6.5,5.3,11.8,11.7,11.8h1
			c2,0,3.8-0.5,5.4-1.4V109.5z"/>
	</g>
</g>
</svg>
