<?xml version="1.0" encoding="utf-8"?>
<!-- Generator: Adobe Illustrator 24.0.1, SVG Export Plug-In . SVG Version: 6.00 Build 0)  -->
<svg version="1.1" xmlns="http://www.w3.org/2000/svg" xmlns:xlink="http://www.w3.org/1999/xlink" x="0px" y="0px"
	 viewBox="0 0 177.4 243.2" style="enable-background:new 0 0 177.4 243.2;" xml:space="preserve">
<style type="text/css">
	.st0{display:none;}
	.st1{display:inline;fill:#F7F8FC;}
	.st2{display:inline;}
	.st3{fill:#F7F8FC;}
	.st4{fill:#FFFFFF;stroke:#0561FC;stroke-width:10.0091;}
	.st5{fill:#9AC7F7;}
	.st6{fill:#C5E1F9;stroke:#0561FC;stroke-width:10.0091;}
	.st7{fill:none;stroke:#0561FC;stroke-width:10.0091;}
	.st8{fill:#9AC7F7;stroke:#0561FC;stroke-width:10.0091;}
	.st9{fill:#FFFFFF;stroke:#0561FC;stroke-width:10.0091;stroke-linejoin:round;}
	.st10{fill:#C5E1F9;}
	.st11{fill:#FFFFFF;}
	.st12{fill:none;stroke:#0561FC;stroke-width:10.0091;stroke-linejoin:bevel;}
</style>
<g id="Layer_2">
</g>
<g id="Layer_3">
</g>
<g id="Layer_4">
	<g>
		<path class="st8" d="M5,243.2v-17.3c0-16.6,13.4-30.1,30-30.1h88.7c16.6,0,30,13.5,30,30.1v17.3"/>
		<polygon class="st4" points="104.8,213.7 79.4,228.4 53.9,213.7 53.9,158 79.4,158 104.8,158 		"/>
		<path class="st4" d="M46.2,129.3c0,6.5-5.3,11.8-11.7,11.8h-1c-6.5,0-11.7-5.3-11.7-11.8v-11.5c0-6.5,5.3-11.8,11.7-11.8h1
			c6.5,0,11.7,5.3,11.7,11.8V129.3z"/>
		<path class="st4" d="M166.2,129.3c0,6.5-5.3,11.8-11.7,11.8h-1c-6.5,0-11.7-5.3-11.7-11.8v-11.5c0-6.5,5.3-11.8,11.7-11.8h1
			c6.5,0,11.7,5.3,11.7,11.8V129.3z"/>
		<path class="st4" d="M151.7,149.7c0,16.6-13.4,30.1-30,30.1H64.3c-16.6,0-30-13.5-30-30.1V60.7c0-16.6,13.4-30.1,30-30.1h57.5
			c16.6,0,30,13.5,30,30.1V149.7z"/>
		<g>
			<path class="st4" d="M55.9,126.5v21.6c0,5.5,4.4,9.9,9.9,9.9h21.6L55.9,126.5z"/>
		</g>
		<path class="st7" d="M87.9,94.6c-6.8,6.8-17.7,6.8-24.5,0"/>
		<path class="st7" d="M141.2,94.6c-6.8,6.8-17.7,6.8-24.5,0"/>
		<path class="st6" d="M74.5,5C55.4,5,39.4,18.1,35,35.8c-8,5.4-13.2,14.5-13.2,24.9v50h2.6c16.6,0,30-13.5,30-30.1V66.1
			c2.9,0.9,6,1.5,9.2,1.5h78.7c16.6,0,30-13.5,30-30.1V5H74.5z"/>
		<g>
			<path class="st7" d="M108.1,125.9c0-5.5,4.5-10,10-10c5.5,0,10,4.5,10,10c0,5.5-4.5,10-10,10"/>
			<line class="st7" x1="106.9" y1="125.9" x2="106.9" y2="68.3"/>
		</g>
	</g>
</g>
</svg>
