<?xml version="1.0" encoding="utf-8"?>
<!-- Generator: Adobe Illustrator 24.0.1, SVG Export Plug-In . SVG Version: 6.00 Build 0)  -->
<svg version="1.1" xmlns="http://www.w3.org/2000/svg" xmlns:xlink="http://www.w3.org/1999/xlink" x="0px" y="0px"
	 viewBox="0 0 186 263.7" style="enable-background:new 0 0 186 263.7;" xml:space="preserve">
<style type="text/css">
	.st0{display:none;}
	.st1{display:inline;fill:#F7F8FC;}
	.st2{display:inline;}
	.st3{fill:#F7F8FC;}
	.st4{fill:#FFFFFF;stroke:#0561FC;stroke-width:10.0091;}
	.st5{fill:#9AC7F7;}
	.st6{fill:#C5E1F9;stroke:#0561FC;stroke-width:10.0091;}
	.st7{fill:none;stroke:#0561FC;stroke-width:10.0091;}
	.st8{fill:#9AC7F7;stroke:#0561FC;stroke-width:10.0091;}
	.st9{fill:#FFFFFF;stroke:#0561FC;stroke-width:10.0091;stroke-linejoin:round;}
	.st10{fill:#C5E1F9;}
	.st11{fill:#FFFFFF;}
	.st12{fill:none;stroke:#0561FC;stroke-width:10.0091;stroke-linejoin:bevel;}
</style>
<g id="Layer_2">
</g>
<g id="Layer_3">
</g>
<g id="Layer_4">
	<g>
		<path class="st4" d="M175.3,145.2c0,5.3-4.3,9.6-9.6,9.6h-8.7c-5.3,0-9.6-4.3-9.6-9.6v-18.3c0-5.3,4.3-9.6,9.6-9.6h8.7
			c5.3,0,9.6,4.3,9.6,9.6V145.2z"/>
		<path class="st4" d="M32.9,145.2c0,5.3-4.3,9.6-9.6,9.6h-8.7c-5.3,0-9.6-4.3-9.6-9.6v-18.3c0-5.3,4.3-9.6,9.6-9.6h8.7
			c5.3,0,9.6,4.3,9.6,9.6V145.2z"/>
		<polyline class="st8" points="25.4,261.3 40.4,232.5 166.6,232.5 181.6,261.3 		"/>
		<path class="st4" d="M114.6,227.4c0,10.5-8.5,18.9-18.9,18.9h-1.2c-10.4,0-18.9-8.5-18.9-18.9v-48.5c0-10.5,8.5-18.9,18.9-18.9
			h1.2c10.4,0,18.9,8.5,18.9,18.9V227.4z"/>
		<path class="st6" d="M167.8,76c0,39.2-31.7,71-70.8,71c-39.1,0-70.8-31.8-70.8-71C26.2,36.8,57.9,5,97,5
			C136.1,5,167.8,36.8,167.8,76z"/>
		<path class="st8" d="M149,113.3c0,31.1-25.1,56.2-56.1,56.2c-31,0-56.1-25.2-56.1-56.2c0-31,25.1-56.2,56.1-56.2
			C123.8,57.1,149,82.3,149,113.3z"/>
		<path class="st4" d="M160.8,146.4c0,39.5-32,71.6-71.4,71.6c-39.5,0-71.4-32.1-71.4-71.6c0-39.5,32-71.6,71.4-71.6
			C128.8,74.8,160.8,106.9,160.8,146.4z"/>
		<path class="st7" d="M41.5,124.8c0-8.1,6.5-14.6,14.6-14.6c8.1,0,14.6,6.6,14.6,14.6"/>
		<path class="st7" d="M99.7,124.8c0-8.1,6.5-14.6,14.6-14.6c8.1,0,14.6,6.6,14.6,14.6"/>
		<path class="st7" d="M84.1,113.9v30.3h-2c-4.8,0-8.8,3.9-8.8,8.8c0,4.9,3.9,8.8,8.8,8.8h6.6"/>
		<path class="st4" d="M77.1,189c8.6,5.8,19.8,7.7,30.4,4c10.6-3.7,18.1-12.2,21.2-22.1L77.1,189z"/>
	</g>
</g>
</svg>
