<?xml version="1.0" encoding="utf-8"?>
<!-- Generator: Adobe Illustrator 24.0.1, SVG Export Plug-In . SVG Version: 6.00 Build 0)  -->
<svg version="1.1" xmlns="http://www.w3.org/2000/svg" xmlns:xlink="http://www.w3.org/1999/xlink" x="0px" y="0px"
	 viewBox="0 0 180 251.8" style="enable-background:new 0 0 180 251.8;" xml:space="preserve">
<style type="text/css">
	.st0{display:none;}
	.st1{display:inline;fill:#F7F8FC;}
	.st2{display:inline;}
	.st3{fill:#F7F8FC;}
	.st4{fill:#FFFFFF;stroke:#0561FC;stroke-width:10.0091;}
	.st5{fill:#9AC7F7;}
	.st6{fill:#C5E1F9;stroke:#0561FC;stroke-width:10.0091;}
	.st7{fill:none;stroke:#0561FC;stroke-width:10.0091;}
	.st8{fill:#9AC7F7;stroke:#0561FC;stroke-width:10.0091;}
	.st9{fill:#FFFFFF;stroke:#0561FC;stroke-width:10.0091;stroke-linejoin:round;}
	.st10{fill:#C5E1F9;}
	.st11{fill:#FFFFFF;}
	.st12{fill:none;stroke:#0561FC;stroke-width:10.0091;stroke-linejoin:bevel;}
</style>
<g id="Layer_2">
</g>
<g id="Layer_3">
</g>
<g id="Layer_4">
	<g>
		<path class="st6" d="M167.5,112.9c0,23.5-19,42.6-42.5,42.6l0,0c-23.5,0-42.5-19.1-42.5-42.6V98.7c0-23.5,19-42.6,42.5-42.6l0,0
			c23.5,0,42.5,19.1,42.5,42.6V112.9z"/>
		<path class="st4" d="M175,99.5c0,8.5-8,15.3-17.9,15.3c-9.9,0-17.9-6.8-17.9-15.3c0-8.5,8-15.3,17.9-15.3
			C167,84.2,175,91.1,175,99.5z"/>
		<path class="st4" d="M98.2,225.2c-12.7,0-22.9-10.3-22.9-23V79.3c0-12.7,10.3-23,22.9-23l0,0c12.7,0,22.9,10.3,22.9,23v122.9
			C121.1,214.9,110.8,225.2,98.2,225.2L98.2,225.2z"/>
		<path class="st4" d="M154.8,92.6c0,32.9-26.6,59.6-59.4,59.6l0,0c-32.8,0-59.4-26.7-59.4-59.6V67.5c0-32.9,26.6-59.6,59.4-59.6
			l0,0c32.8,0,59.4,26.7,59.4,59.6V92.6z"/>
		<path class="st4" d="M82.2,123.9c2.9,5,7.5,8.2,12.8,8.2c5.3,0,10-3.2,12.8-8.2"/>
		<path class="st8" d="M26,251.8v-47c0-10.9,8.8-19.8,19.8-19.8h102.5c10.9,0,19.8,8.9,19.8,19.8v47"/>
		<path class="st7" d="M136.6,86.3c-6.1,6.1-15.9,6.1-21.9,0"/>
		<path class="st6" d="M21.7,80.4V158h10.8c33.1,0,60-44.5,60-77.7v-75C53,7.5,21.7,40.3,21.7,80.4z"/>
		<path class="st7" d="M0,158h10.1c30.8,0,55.8-26.9,55.8-60.1"/>
		<path class="st6" d="M98.3,5.3v5.5c4.7,37.7,33.7,67.8,70.8,74.1v-4.5C169.1,40.3,137.8,7.5,98.3,5.3z"/>
		<path class="st8" d="M126.3,198.9c0,2.8-2.2,5-5,5H74.7c-2.8,0-5-2.2-5-5v-22.5c0-2.8,2.2-5,5-5h46.7c2.8,0,5,2.2,5,5V198.9z"/>
		<line class="st7" x1="87.5" y1="202.2" x2="87.5" y2="183"/>
	</g>
</g>
</svg>
